# xmcd
#
# Track frame offsets: 
#        180
#        14505
#        28293
#        42438
#        55593
#        68823
#        82198
#        93557
#        106789
#        118955
#        132939
#        146049
#        157664
#        170480
#        179924
#        190424
#        203708
#        216922
#        228512
#        240919
#        255113
#        269426
#        281772
#        296303
#
# Disc length: 4127 seconds
#
# Revision: 0
# Processed by: cddbd v1.5.2PL0 Copyright (c) Steve Scherf et al.
# Submitted via: ExactAudioCopy v0.95b4
#
DISCID=65101d18
DTITLE=Various Artist - Blues Generations Vol. 1 [CD 2]
DYEAR=2006
DGENRE=Blues
TTITLE0=Bessie Smith - Cake Walking Babies
TTITLE1=Mississippi John Hurt - Avalon Blues
TTITLE2=Bessie Smith - Black Mountain Blues
TTITLE3=Leadbelly - Ox Drivin Blues
TTITLE4=Alice Moore - Grass Cutter Blues
TTITLE5=Robert Johnson - I Believe Ill Dust My Broom
TTITLE6=Blind Boy Fuller And Sonny Terry - Mean And No Good Woman
TTITLE7=Big Joe Williams - Brother James
TTITLE8=John Lee Williamson - Bad Luck Blues
TTITLE9=Blind Boy Fuller - Im A Rattlesnakin Daddy
TTITLE10=Big Joe Turner - Cherry Red
TTITLE11=Bukka White - Aberdeen Mississippi Blues
TTITLE12=Brownie Mcghee And Blind Bye Now - Good - Bye Now
TTITLE13=Sonny Terry - Fox Chase
TTITLE14=Lowell Fulson - San Francisco Blues
TTITLE15=Arthur Big Boy Crudup - I Want My Lovin
TTITLE16=Big Joe Turner - Miss Brown Blues
TTITLE17=Muddy Waters - Gypsy Woman
TTITLE18=Big Joe Turner - Hollywood Bed Cherry Red Blues
TTITLE19=Muddy Waters - I Feel Like Going Home
TTITLE20=John Lee Hooker - Henrys Swing Club
TTITLE21=Big Joe Turner - Radar Blues
TTITLE22=John Lee Hooker - Do The Boogie
TTITLE23=John Lee Hooker - Need Somebody
EXTD=
EXTT0=
EXTT1=
EXTT2=
EXTT3=
EXTT4=
EXTT5=
EXTT6=
EXTT7=
EXTT8=
EXTT9=
EXTT10=
EXTT11=
EXTT12=
EXTT13=
EXTT14=
EXTT15=
EXTT16=
EXTT17=
EXTT18=
EXTT19=
EXTT20=
EXTT21=
EXTT22=
EXTT23=
PLAYORDER=
